<svg xmlns="http://www.w3.org/2000/svg" viewBox="0 0 771 280" width="771" height="280">
  <rect x="40" y="40" width="200" height="200" rx="44" fill="#2f63e6"></rect>
  <svg x="84" y="84" width="112.00000000000001" height="112.00000000000001" viewBox="0 0 48 48">
    <polygon points="24,8 41,41 7,41" fill="none" stroke="#ffffff" stroke-width="4.5" stroke-linejoin="round"></polygon>
    <rect x="15" y="29" width="18" height="4" rx="2" fill="#ffffff"></rect>
  </svg>
  <g transform="translate(281.14285714285717, 190) scale(0.14285714285714285,-0.14285714285714285)"><path d="M20 0L212 700L421 700L613 0L489 0L447 160L186 160L144 0ZM214 270L419 270L325 625L308 625Z" transform="translate(0,0)" fill="#ffffff"></path><path d="M262 -8Q205 -8 161 17.5Q117 43 93 89.5Q69 136 69 198L69 494L183 494L183 207Q183 147 212.5 118Q242 89 296 89Q357 89 392.5 129Q428 169 428 244L428 494L542 494L542 0L430 0L430 69L413 69Q400 42 365.5 17Q331 -8 262 -8Z" transform="translate(633,0)" fill="#ffffff"></path><path d="M275 -14Q215 -14 163 15.5Q111 45 80 102Q49 159 49 239L49 255Q49 335 80 392Q111 449 162.5 478.5Q214 508 275 508Q321 508 353 497Q385 486 404.5 469Q424 452 435 432L452 432L452 700L566 700L566 0L454 0L454 65L437 65Q419 35 382 10.5Q345 -14 275 -14ZM309 86Q371 86 412 126.5Q453 167 453 242L453 252Q453 328 412.5 368Q372 408 309 408Q247 408 205.5 368Q164 328 164 252L164 242Q164 167 205.5 126.5Q247 86 309 86Z" transform="translate(1248,0)" fill="#ffffff"></path><path d="M73 0L73 494L188 494L188 0ZM130 557Q99 557 76.5 577.5Q54 598 54 632Q54 666 76.5 686.5Q99 707 130 707Q163 707 184.5 686.5Q206 666 206 632Q206 598 184.5 577.5Q163 557 130 557Z" transform="translate(1887,0)" fill="#ffffff"></path><path d="M261 0Q213 0 184.5 28.5Q156 57 156 106L156 399L27 399L27 494L156 494L156 653L271 653L271 494L413 494L413 399L271 399L271 125Q271 95 299 95L398 95L398 0Z" transform="translate(2148,0)" fill="#ffffff"></path><path d="M128 -200L128 -100L401 -100Q429 -100 429 -70L429 68L412 68Q404 50 386 32.5Q368 15 338 3.5Q308 -8 262 -8Q205 -8 161 17.5Q117 43 93 89.5Q69 136 69 198L69 494L183 494L183 207Q183 147 212.5 118Q242 89 296 89Q357 89 392.5 129Q428 169 428 244L428 494L542 494L542 -94Q542 -143 514 -171.5Q486 -200 438 -200Z" transform="translate(2605,0)" fill="#ffffff"></path></g>
</svg>